{
	"asset": {
		"generator": "Unity 2018.1.0b2",
		"extras": {
			"exporterVersion" : "2.2.1"
		},
		"version": "2.0"
	},
	"accessors": [
		{
			"bufferView": 2,
			"byteOffset": 0,
			"componentType": 5126,
			"count": 384,
			"max": [ 0.454, 0.454, 0.454 ],
			"min": [ -0.454, -0.454, -0.454 ],
			"type": "VEC3"
		},
		{
			"bufferView": 2,
			"byteOffset": 4608,
			"componentType": 5126,
			"count": 384,
			"max": [ 0.9957312, 0.9957312, 0.9957312 ],
			"min": [ -0.9957312, -0.9957312, -0.9957312 ],
			"type": "VEC3"
		},
		{
			"bufferView": 1,
			"byteOffset": 0,
			"componentType": 5126,
			"count": 384,
			"max": [ 1, 1 ],
			"min": [ -5.960464E-08, 0 ],
			"type": "VEC2"
		},
		{
			"bufferView": 3,
			"byteOffset": 0,
			"componentType": 5126,
			"count": 384,
			"max": [ 0.9989636, 0.7063814, 0.9989636, 1 ],
			"min": [ -0.9989636, -0.7063815, -0.9989636, 1 ],
			"type": "VEC4"
		},
		{
			"bufferView": 0,
			"byteOffset": 0,
			"componentType": 5123,
			"count": 1764,
			"max": [ 383 ],
			"min": [ 0 ],
			"type": "SCALAR"
		}
	],
	"buffers": [
		{
			"byteLength": 21960,
			"uri": "Unity2Skfb.bin"
		}
	],
	"bufferViews": [
		{
			"buffer": 0,
			"byteLength": 3528,
			"target": 34963,
			"byteOffset": 18432
		},
		{
			"buffer": 0,
			"byteLength": 3072,
			"target": 34962,
			"byteStride": 8,
			"byteOffset": 0
		},
		{
			"buffer": 0,
			"byteLength": 9216,
			"target": 34962,
			"byteStride": 12,
			"byteOffset": 3072
		},
		{
			"buffer": 0,
			"byteLength": 6144,
			"target": 34962,
			"byteStride": 16,
			"byteOffset": 12288
		}
	],
	"extensionsRequired": [
		"KHR_materials_pbrSpecularGlossiness"
	],
	"extensionsUsed": [
		"KHR_materials_pbrSpecularGlossiness"
	],
	"images": [
		{
			"uri": "Assets/_EXP Framework/Sandbox/Mats/Sand/SandBitmap2Material_3_Base_Color.jpg"
		},
		{
			"uri": "Assets/_EXP Framework/Sandbox/Mats/Sand/SandBitmap2Material_3_Roughness.png"
		},
		{
			"uri": "Assets/_EXP Framework/Sandbox/Mats/Sand/SandBitmap2Material_3_Normal.jpg"
		},
		{
			"uri": "Assets/_EXP Framework/Sandbox/Mats/Sand/SandBitmap2Material_3_Ambient_Occlusion.jpg"
		}
	],
	"materials": [
		{
			"extensions": {
				"KHR_materials_pbrSpecularGlossiness": {
					"diffuseTexture" : {
						"index" : 0,
						"texCoord" : 0
					},
					"diffuseFactor": [1, 1, 1, 1],
					"specularGlossinessTexture" : {
						"index" : 1,
						"texCoord" : 0
					},
					"specularFactor": [1, 1, 1],
					"glossinessFactor": 1				}

			},
			"normalTexture" : {
				"index" : 2,
				"texCoord" : 0,
				"scale" : 1
			},
			"emissiveFactor": [0, 0, 0],
			"occlusionTexture" : {
				"index" : 3,
				"texCoord" : 0,
				"strength" : 1
			},
			"doubleSided": false,
			"name": "Sand"
		}
	],
	"meshes": [
		{
			"name": "mesh_Mesh_4242Rounded cube - Sand",
			"primitives": [
				{
					"attributes": {
						"POSITION": 0,
						"NORMAL": 1,
						"TEXCOORD_0": 2,
						"TANGENT": 3
					},
					"indices": 4,
					"material": 0,
					"mode": 4
				}
			]
		}
	],
	"nodes": [
		{
			"name": "UnityGlTF_root",
			"children": [
				1
			]
		},
		{
			"name": "node_Rounded cube - Sand_-97426",
			"mesh": 0,
			"matrix": [0.8951646, 0, 0.4457357, 0, 0, 1, 0, 0, -0.4457357, 0, 0.8951646, 0, 0, 0, 0.44, 1]
		}
	],
	"samplers": [
		{
			"magFilter": 9729,
			"minFilter": 9985,
			"wrapS": 10497,
			"wrapT": 10497
		}
	],
	"scenes": [
		{
			"name":"defaultScene",
			"nodes": [
				0
			]
		}
	],
	"scene": 0,
	"textures": [
		{
			"sampler": 0,
			"source": 0
		},
		{
			"sampler": 0,
			"source": 1
		},
		{
			"sampler": 0,
			"source": 2
		},
		{
			"sampler": 0,
			"source": 3
		}
	]
}